# xmcd
#
# Track frame offsets:
#	150
#	15587
#	46687
#	74705
#	107150
#	139800
#
# Disc length: 2246 seconds
#
# Revision: 3
# Processed by: cddbd v1.5.2PL0 Copyright (c) Steve Scherf et al.
# Submitted via: EasyCDDAExtractor 10.2.0.1
#
DISCID=4f08c406
DTITLE=State Of Mind - This Is It [CD Single)
DYEAR=1998
DGENRE=House
TTITLE0=This Is It (7" Edit)
TTITLE1=This Is It (M&S Epic Klub Mix)
TTITLE2=This Is It (Nu Birth Vocal)
TTITLE3=This Is It (Dillon and Dickins Mensa Mix)
TTITLE4=This Is It (M.J. Cole Vocal Mix)
TTITLE5=This Is It (M&S Epic Dub Mix)
EXTD=
EXTT0=
EXTT1=
EXTT2=
EXTT3=
EXTT4=
EXTT5=
PLAYORDER=
